<?xml version="1.0" encoding="utf-8"?>
<!-- Generator: Adobe Illustrator 22.1.0, SVG Export Plug-In . SVG Version: 6.00 Build 0)  -->
<svg version="1.1" id="Layer_1" xmlns="http://www.w3.org/2000/svg" xmlns:xlink="http://www.w3.org/1999/xlink" x="0px" y="0px"
	 viewBox="0 0 198.6 25.2" style="enable-background:new 0 0 198.6 25.2;" xml:space="preserve">
<style type="text/css">
	.st0{fill:#FFFFFF;}
	.st1{fill:#FFFFFF;}
</style>
<g>
	<g>
		<path class="st0" d="M1.5,22.9v-9h0.8v9H1.5z"/>
		<path class="st0" d="M5.4,22.9H4.7V18c0-0.5,0-1-0.1-1.4h0.8l0,0.9l0,0c0.4-0.8,1.1-1.1,2-1.1c2,0,2.2,1.8,2.2,2.5v3.9H8.9v-4
			c0-1.1-0.6-1.7-1.6-1.7c-1.2,0-1.8,1-1.8,2.2V22.9z"/>
		<path class="st0" d="M12.2,22.9v-5.6h-1.3v-0.7h1.3v-1.3c0-1.1,0.4-1.6,1.5-1.6c0.2,0,0.5,0.1,0.7,0.1v0.6c-0.1,0-0.3,0-0.5,0
			c-1,0-1,0.5-1,1.4v0.8h1.4v0.7h-1.4v5.6H12.2z"/>
		<path class="st0" d="M21.2,19.7c0,1.6-0.9,3.3-2.9,3.3s-2.9-1.7-2.9-3.3s0.9-3.3,2.9-3.3S21.2,18.1,21.2,19.7z M18.3,17.1
			c-1.5,0-2.1,1.5-2.1,2.6c0,1.2,0.6,2.6,2.1,2.6c1.5,0,2.1-1.5,2.1-2.6C20.4,18.6,19.8,17.1,18.3,17.1z"/>
		<path class="st0" d="M23.6,22.9h-0.7V18c0-0.5,0-1-0.1-1.4h0.8l0,0.9h0c0.2-0.6,0.8-1.1,1.4-1.1c0.2,0,0.5,0,0.7,0v0.7
			c-0.1,0-0.3,0-0.5,0c-1.1,0-1.7,0.8-1.7,2V22.9z"/>
		<path class="st0" d="M27.8,17.5L27.8,17.5c0.5-0.7,1.2-1.1,2-1.1c1,0,1.8,0.5,2,1.4c0.5-0.7,1.2-1.4,2.2-1.4c2,0,2.2,1.8,2.2,2.5
			v3.9h-0.7v-4c0-1.1-0.6-1.7-1.6-1.7c-1.2,0-1.8,1-1.8,2.2v3.6h-0.7v-4c0-1.1-0.6-1.7-1.6-1.7c-1.2,0-1.8,1-1.8,2.2v3.6H27V18
			c0-0.5,0-1-0.1-1.4h0.8L27.8,17.5z"/>
		<path class="st0" d="M41.7,18.5c-0.1-1-0.6-1.3-1.5-1.3c-0.8,0-1.4,0.2-1.5,1.1h-0.8c0.2-1.3,1.1-1.8,2.3-1.8
			c1.4,0,2.2,0.6,2.2,2.1v3c0,0.5,0,1,0.1,1.4h-0.8l0-0.9h0l0,0.1c-0.3,0.5-1.1,1-2,1c-1.2,0-2.1-0.7-2.1-1.9c0-0.8,0.5-1.5,1.3-1.8
			c0.8-0.4,1.9-0.2,2.8-0.3V18.5z M39.8,22.4c1.6,0,1.9-1.3,1.9-2.6c-1.1,0-3.3-0.2-3.3,1.4C38.4,22,39,22.4,39.8,22.4z"/>
		<path class="st0" d="M44.9,17.3h-1.2v-0.7h1.2v-1.3l0.7-0.3v1.7h1.4v0.7h-1.4v4.2c0,0.6,0.3,0.9,0.9,0.9c0.2,0,0.4,0,0.6-0.1v0.6
			C46.9,23,46.7,23,46.4,23c-1.6,0-1.5-1-1.5-1.9V17.3z"/>
		<path class="st0" d="M49.4,14.8h-0.9v-0.9h0.9V14.8z M49.4,16.6v6.2h-0.7v-6.2H49.4z"/>
		<path class="st0" d="M56.8,19.7c0,1.6-0.9,3.3-2.9,3.3S51,21.4,51,19.7s0.9-3.3,2.9-3.3S56.8,18.1,56.8,19.7z M53.9,17.1
			c-1.5,0-2.1,1.5-2.1,2.6c0,1.2,0.6,2.6,2.1,2.6c1.5,0,2.1-1.5,2.1-2.6C56,18.6,55.4,17.1,53.9,17.1z"/>
		<path class="st0" d="M59.1,22.9h-0.7V18c0-0.5,0-1-0.1-1.4h0.8l0,0.9l0,0c0.4-0.8,1.1-1.1,2-1.1c2,0,2.2,1.8,2.2,2.5v3.9h-0.7v-4
			c0-1.1-0.6-1.7-1.6-1.7c-1.2,0-1.8,1-1.8,2.2V22.9z"/>
		<path class="st0" d="M70.9,14.6H68v-0.7h6.6v0.7h-2.8l0,8.2H71L70.9,14.6z"/>
		<path class="st0" d="M75.1,19.9c0,1.3,0.6,2.5,2.2,2.5c0.9,0,1.6-0.6,1.8-1.5h0.8c-0.4,1.5-1.3,2.2-2.8,2.2
			c-1.9,0-2.7-1.6-2.7-3.3c0-1.7,0.9-3.3,2.8-3.3c2.1,0,2.8,1.5,2.8,3.5H75.1z M79.2,19.2c-0.1-1.2-0.7-2.1-2-2.1
			c-1.2,0-1.9,1-2,2.1H79.2z"/>
		<path class="st0" d="M85.6,18.5c-0.1-1-0.7-1.4-1.7-1.4c-1.1,0-1.9,1.2-1.9,2.6c0,1.4,0.7,2.6,1.9,2.6c1,0,1.6-0.6,1.7-1.5h0.8
			c-0.2,1.4-1,2.1-2.4,2.1c-1.9,0-2.7-1.6-2.7-3.3c0-1.7,0.9-3.3,2.8-3.3c1.3,0,2.3,0.8,2.4,2.1H85.6z"/>
		<path class="st0" d="M88.7,17.6L88.7,17.6c0.5-0.8,1.2-1.1,2-1.1c2,0,2.2,1.8,2.2,2.5v3.9h-0.7v-4c0-1.1-0.6-1.7-1.6-1.7
			c-1.2,0-1.8,1-1.8,2.2v3.6h-0.7v-9h0.7V17.6z"/>
		<path class="st0" d="M95.7,22.9h-0.7V18c0-0.5,0-1-0.1-1.4h0.8l0,0.9l0,0c0.4-0.8,1.1-1.1,2-1.1c2,0,2.2,1.8,2.2,2.5v3.9h-0.7v-4
			c0-1.1-0.6-1.7-1.6-1.7c-1.2,0-1.8,1-1.8,2.2V22.9z"/>
		<path class="st0" d="M107.3,19.7c0,1.6-0.9,3.3-2.9,3.3s-2.9-1.7-2.9-3.3s0.9-3.3,2.9-3.3S107.3,18.1,107.3,19.7z M104.3,17.1
			c-1.5,0-2.1,1.5-2.1,2.6c0,1.2,0.6,2.6,2.1,2.6c1.5,0,2.1-1.5,2.1-2.6C106.4,18.6,105.8,17.1,104.3,17.1z"/>
		<path class="st0" d="M109.6,22.9h-0.7v-9h0.7V22.9z"/>
		<path class="st0" d="M117,19.7c0,1.6-0.9,3.3-2.9,3.3c-2,0-2.9-1.7-2.9-3.3s0.9-3.3,2.9-3.3C116.1,16.4,117,18.1,117,19.7z
			 M114.1,17.1c-1.5,0-2.1,1.5-2.1,2.6c0,1.2,0.6,2.6,2.1,2.6s2.1-1.5,2.1-2.6C116.2,18.6,115.6,17.1,114.1,17.1z"/>
		<path class="st0" d="M123,16.6h0.8c0,0.4-0.1,0.9-0.1,1.4v3.7c0,1.2,0.1,2.5-1.3,3.2c-0.5,0.2-0.8,0.3-1.4,0.3
			c-1.1,0-2.5-0.4-2.5-1.7h0.8c0.1,0.7,1,1,1.8,1c1,0,1.9-0.7,1.9-1.7v-1.2h0c-0.4,0.7-1.2,1.2-2,1.2c-1.9,0-2.7-1.4-2.7-3.1
			c0-1.7,0.8-3.3,2.7-3.3c0.9,0,1.6,0.4,2.1,1.2l0,0L123,16.6z M120.9,17.1c-1.4,0-1.9,1.4-1.9,2.5c0,1.1,0.6,2.5,2,2.5
			c1.4,0,2-1.3,2-2.5C122.9,18.4,122.3,17.1,120.9,17.1z"/>
		<path class="st0" d="M125.6,16.6l2.1,5.2l2.1-5.2h0.8l-3.4,8.6h-0.8l0.9-2.4l-2.6-6.2H125.6z"/>
	</g>
	<path class="st1" d="M4.6,8.6C2.1,8.6,0,6.9,0,4.3C0,1.7,2.1,0,4.6,0h7.7v2.1H5.4c-1.3,0-2.5,0.8-2.5,2.2c0,1.4,1.2,2.2,2.5,2.2
		h4.1V5.1H6.5V3.3h5.9v5.3H4.6z M14.2,8.6V0h9.9v2.1h-7v1.2h7v1.9h-7v1.4h7v2.1H14.2z M34.3,8.6l-5.8-6.7h0v6.7h-2.7V0h4.4L35,5.6h0
		V0h2.6v8.6H34.3z M39.5,8.6V0h9.8v2.1h-7v1.2h7v1.9h-7v1.4h7v2.1H39.5z M60.4,5.6c0.7,1,1.5,2,2.2,2.9h-3.2l-1.9-2.7h-3.5v2.7h-2.8
		V0h8.1c1.9,0,3.6,0.9,3.6,3C62.8,4.5,61.8,5.3,60.4,5.6 M58.6,1.9h-4.6v2h4.6c0.6,0,1.3-0.3,1.3-1C59.8,2.2,59.2,1.9,58.6,1.9"/>
	<path class="st1" d="M75.2,8.6l-1.1-1.6h-6.7l-1,1.6h-3.2L68.9,0H73l5.6,8.6H75.2z M70.9,1.5L70.9,1.5l-2.2,3.3H73L70.9,1.5z
		 M79.5,8.6V0h2.8v6.5h7v2.1H79.5z M104.6,8.6h-8.1V0h8.1c2.5,0,4.6,1.7,4.6,4.3C109.2,6.9,107.1,8.6,104.6,8.6 M103.8,2.1h-4.5v4.4
		h4.5c1.3,0,2.5-0.8,2.5-2.2C106.3,2.8,105.1,2.1,103.8,2.1 M117,5.6v3h-2.8v-3L108.7,0h3.7l3.5,3.4l3.4-3.4h3.4L117,5.6z
		 M131.8,8.6l-5.6-6h0v6h-2.7l0-8.6h3.9l5.2,5.6h0V0h2.6v8.6H131.8z"/>
	<path class="st1" d="M147.8,8.6l-1.1-1.6h-6.7l-1,1.6h-3.2l5.6-8.6h4.2l5.6,8.6H147.8z M143.5,1.5L143.5,1.5l-2.2,3.3h4.3
		L143.5,1.5z M164.9,8.6V2.1h-0.1l-3.7,6.5h-2.7l-3.6-6.5h-0.1v6.5h-2.7V0h4.5l3.3,6h0.1l3.2-6h4.5v8.6H164.9z M169.5,0h2.8v8.6
		h-2.8V0z M178.4,8.6c-2.5,0-4.6-1.7-4.6-4.3c0-2.6,2.1-4.3,4.6-4.3h7v2.1h-6.2c-1.4,0-2.5,0.8-2.5,2.2c0,1.4,1.2,2.2,2.5,2.2h6.2
		v2.1H178.4z M195.8,8.6h-8.5v-2h7.6c0.4,0,0.9-0.1,0.9-0.6c0-0.5-0.4-0.6-0.9-0.6h-5.1c-1.5,0-2.6-1.2-2.6-2.7
		c0-1.5,1.1-2.7,2.6-2.7h8.6v2h-7.7c-0.4,0-0.7,0.2-0.7,0.6c0,0.4,0.4,0.6,0.7,0.6h5.1c1.6,0,2.9,1.1,2.9,2.7
		C198.6,7.5,197.3,8.6,195.8,8.6"/>
</g>
</svg>
