<?xml version="1.0" encoding="utf-8"?>
<!-- Generator: Adobe Illustrator 22.1.0, SVG Export Plug-In . SVG Version: 6.00 Build 0)  -->
<svg version="1.1" xmlns="http://www.w3.org/2000/svg" xmlns:xlink="http://www.w3.org/1999/xlink" x="0px" y="0px"
	 viewBox="0 0 260 50" style="enable-background:new 0 0 260 50;" xml:space="preserve">
<style type="text/css">
	.st0{display:none;}
	.st1{display:inline;fill:#CCCCCC;}
	.st2{fill:#FFFFFF;}
	.st3{display:inline;}
	.st4{fill:#3392B9;}
	.st5{fill:#894870;}
	.st6{fill:#A09A3C;}
	.st7{fill:#871A41;}
</style>
<g id="Layer_1">
	<g id="Layer_2_1_" class="st0">
		<rect class="st1" width="260" height="50"/>
	</g>
	<g id="Layer_3">
		<g>
			<path class="st2" d="M69.8,12.6V15h-7.5v20.6h-2.6V15h-7.5v-2.4H69.8z"/>
			<path class="st2" d="M88.7,35.6l-4.8-7.4c-0.5,0-1,0.1-1.5,0.1h-6.1v7.3h-2.6v-23h8.7c5.7,0,9.1,2.8,9.1,7.7
				c0,3.8-1.9,6.4-5.2,7.4l5.4,7.8L88.7,35.6L88.7,35.6z M82.4,25.9c4.2,0,6.5-1.9,6.5-5.5c0-3.5-2.4-5.4-6.5-5.4h-6.1v10.8h6.1
				V25.9z"/>
			<path class="st2" d="M111.9,29.7H99.4l-2.6,5.9H94l10.3-23h2.7l10.3,23h-2.9L111.9,29.7z M110.8,27.3l-5.2-11.8l-5.2,11.8H110.8z
				"/>
			<path class="st2" d="M123.7,12.6l13.8,18.7V12.6h2.6v23h-2.7l-13.8-18.7v18.7H121v-23C121,12.6,123.7,12.6,123.7,12.6z"/>
			<path class="st2" d="M153.7,15.1c-3,0-4.9,1.2-4.9,3.2c0,6,12.9,2.9,12.9,11.2c0,3.8-3.4,6.3-8.3,6.3c-3.3,0-6.6-1.4-8.8-3.5
				l1.2-2.3c2.1,2,5.1,3.2,7.7,3.2c3.3,0,5.4-1.3,5.4-3.6c0-6.1-12.9-2.9-12.9-11.1c0-3.6,3.2-5.9,7.9-5.9c2.7,0,5.4,0.9,7.3,2.1
				l-1.1,2.3C158,15.6,155.6,15.1,153.7,15.1z"/>
			<path class="st2" d="M177,14.9c-5.2,0-9.4,4-9.4,9.1s4.2,9.2,9.4,9.2c2.5,0,5-1.1,6.8-2.8l1.6,1.7c-2.3,2.1-5.4,3.5-8.5,3.5
				c-6.6,0-11.9-5.1-11.9-11.6c0-6.4,5.3-11.5,12-11.5c3.2,0,6.2,1.3,8.4,3.3l-1.6,1.9C182,16,179.5,14.9,177,14.9z"/>
			<path class="st2" d="M205.7,12.6V15h-13v7.7h11.6v2.4h-11.6v8h13.4v2.4h-16v-23h15.6V12.6z"/>
			<path class="st2" d="M214.2,12.6L228,31.3V12.6h2.6v23h-2.7l-13.8-18.7v18.7h-2.6v-23C211.5,12.6,214.2,12.6,214.2,12.6z"/>
			<path class="st2" d="M258.7,24.1c0,6.5-5.2,11.5-11.9,11.5h-9.2v-23h9.3C253.6,12.6,258.7,17.5,258.7,24.1z M256,24.1
				c0-5.2-4.1-9.1-9.2-9.1h-6.6v18.1h6.7C252,33.1,256,29.3,256,24.1z"/>
		</g>
	</g>
</g>
<g id="Layer_2" class="st0">
	<g class="st3">
		
			<rect x="28.7" y="4.7" transform="matrix(0.4989 0.8667 -0.8667 0.4989 23.3633 -26.9111)" class="st4" width="12.4" height="4.1"/>
		
			<rect x="34.9" y="15.5" transform="matrix(0.4989 0.8667 -0.8667 0.4989 35.8191 -26.8877)" class="st5" width="12.4" height="4.1"/>
		
			<rect x="41.1" y="26.3" transform="matrix(0.4989 0.8667 -0.8667 0.4989 48.275 -26.8642)" class="st6" width="12.4" height="4.1"/>
		
			<rect x="47.4" y="37.1" transform="matrix(0.4989 0.8667 -0.8667 0.4989 60.7308 -26.8408)" class="st7" width="12.4" height="4.1"/>
	</g>
</g>
<g id="Layer_3_1_">
	<rect x="59.7" y="38.6" class="st4" width="49.8" height="1.8"/>
	<rect x="109.5" y="38.6" class="st5" width="49.8" height="1.8"/>
	<rect x="159.2" y="38.6" class="st6" width="49.8" height="1.8"/>
	<rect x="209" y="38.6" class="st7" width="49.8" height="1.8"/>
</g>
<g id="Layer_4">
	<g>
		<polygon class="st2" points="5,45.5 38.5,45.5 13.8,30.4 		"/>
		<polygon class="st2" points="30,2.5 19.4,20.8 38.5,45.5 55,45.5 		"/>
	</g>
</g>
</svg>
