<?xml version="1.0" encoding="utf-8"?>
<!-- Generator: Adobe Illustrator 24.1.1, SVG Export Plug-In . SVG Version: 6.00 Build 0)  -->
<svg version="1.1" id="NEW_LOGO_copy_2" xmlns="http://www.w3.org/2000/svg" xmlns:xlink="http://www.w3.org/1999/xlink" x="0px"
	 y="0px" viewBox="0 0 301 58" style="enable-background:new 0 0 301 58;" xml:space="preserve">
<style type="text/css">
	.st0{fill-rule:evenodd;clip-rule:evenodd;fill:#FFFFFF;}
</style>
<path class="st0" d="M234.1,1.9v36.7L204.3,1.9H196V56h10V19.3L235.8,56h8.3V1.9H234.1L234.1,1.9z M300.5,1.9h-9.9l-16,26.4
	L258.7,1.9H248L269.2,37v19h10.1V36.9L300.5,1.9z M187.2,2v23.5c-1.5-2.9-3.8-5.3-6.7-7c-2.9-1.7-6.2-2.6-9.5-2.5
	c-3.5,0-7,0.8-10,2.5c-3,1.7-5.4,4.2-7,7.1c-1.7,3.2-2.6,6.8-2.5,10.5c-0.1,3.6,0.8,7.2,2.5,10.4c1.6,3,4.1,5.5,7,7.1
	c3.1,1.7,6.5,2.6,10,2.6c3.4,0.1,6.7-0.8,9.7-2.5c2.9-1.7,5.1-4.2,6.6-7.1V56h3.7V2H187.2z M185.1,44.8c-1.3,2.5-3.3,4.5-5.7,5.9
	c-2.5,1.4-5.3,2.2-8.2,2.1c-2.9,0-5.7-0.7-8.2-2.1c-2.4-1.4-4.4-3.5-5.7-5.9c-1.4-2.7-2.1-5.6-2.1-8.7c-0.1-3,0.7-6,2.1-8.7
	c1.3-2.5,3.3-4.5,5.7-5.9c5.1-2.8,11.3-2.8,16.3,0c2.4,1.4,4.4,3.5,5.7,5.9c1.4,2.7,2.1,5.6,2.1,8.7
	C187.3,39.2,186.6,42.2,185.1,44.8z M146.3,36c0.1-3.6-0.8-7.2-2.5-10.3c-1.6-2.9-3.9-5.4-6.8-7.1c-6-3.4-13.4-3.4-19.4,0
	c-2.9,1.7-5.2,4.2-6.8,7.2c-1.7,3.2-2.5,6.8-2.5,10.4c-0.1,3.6,0.8,7.2,2.6,10.4c1.7,3,4.2,5.5,7.3,7.1c5.9,3.1,12.9,3.4,19,0.9
	c2.5-1,4.8-2.7,6.5-4.8l-2.2-2.5c-1.5,1.8-3.4,3.2-5.5,4.1c-2.3,1-4.7,1.4-7.2,1.4c-2.9,0-5.9-0.6-8.5-2c-2.5-1.3-4.5-3.2-6-5.6
	c-1.5-2.5-2.3-5.3-2.4-8.2h34.1L146.3,36z M112.2,34.1c0.2-2.7,1-5.3,2.3-7.6c1.3-2.2,3.1-4,5.4-5.2c2.3-1.3,4.9-1.9,7.5-1.9
	c5.3-0.1,10.2,2.6,12.9,7.1c1.4,2.3,2.2,4.9,2.3,7.6H112.2z M103,56.3l-0.1-54.2h-3.2L76,44L52.2,2.1h-3.3v54.2h3.8V10l22.3,39h1.9
	L99.2,9.9l0.1,46.4H103z M44.4,35.9c0.1-3.8-0.8-7.6-2.6-11c-1.7-3.1-4.2-5.7-7.3-7.4c-3.2-1.8-6.9-2.7-10.6-2.6
	c-3.8-0.1-7.5,0.9-10.8,2.7c-3.1,1.7-5.7,4.3-7.5,7.4C3.8,28.3,2.8,32,2.9,35.7c-0.1,3.8,0.9,7.5,2.8,10.8c1.9,3.2,4.6,5.7,7.9,7.4
	c3.3,1.6,6.8,2.5,10.5,2.6v-8.1c-2.6-0.2-5.1-1.1-7.2-2.6c-2.3-1.7-3.9-4.3-4.4-7.1h31.8C44.3,37.5,44.4,36.6,44.4,35.9z M12.3,32.4
	c0.7-5.8,5.7-10.1,11.6-9.9c2.8-0.1,5.6,0.9,7.8,2.7c2.1,1.8,3.4,4.4,3.7,7.1H12.3z"/>
</svg>
