<?xml version="1.0" encoding="utf-8"?>
<!-- Generator: Adobe Illustrator 24.1.1, SVG Export Plug-In . SVG Version: 6.00 Build 0)  -->
<svg version="1.1" id="NEW_LOGO_copy_2" xmlns="http://www.w3.org/2000/svg" xmlns:xlink="http://www.w3.org/1999/xlink" x="0px"
	 y="0px" viewBox="0 0 47.8 45.1" style="enable-background:new 0 0 47.8 45.1;" xml:space="preserve">
<style type="text/css">
	.st0{fill-rule:evenodd;clip-rule:evenodd;fill:#FFFFFF;}
</style>
<path class="st0" d="M44.4,23c0.1-3.8-0.8-7.6-2.6-11c-1.7-3.1-4.2-5.7-7.3-7.4C31.3,2.8,27.6,1.9,23.9,2c-3.8-0.1-7.5,0.9-10.8,2.7
	C10,6.4,7.4,9,5.6,12.1c-1.8,3.3-2.8,7-2.7,10.7c-0.1,3.8,0.9,7.5,2.8,10.8c1.9,3.2,4.6,5.7,7.9,7.4c3.3,1.6,6.8,2.5,10.5,2.6v-8.1
	c-2.6-0.2-5.1-1.1-7.2-2.6c-2.3-1.7-3.9-4.3-4.4-7.1h31.8C44.3,24.6,44.4,23.7,44.4,23z M12.3,19.4c0,0,0,0.1,0,0.1L12.3,19.4
	L12.3,19.4c0.7-5.7,5.7-10,11.6-9.8c2.8-0.1,5.6,0.9,7.8,2.7c2.1,1.8,3.4,4.4,3.7,7.1H12.3z"/>
</svg>
