<svg xmlns="http://www.w3.org/2000/svg" viewBox="0 0 502.37 66.14"><defs><style>.cls-1{fill:#fff;}</style></defs><title>Asset 4</title><g id="Layer_2" data-name="Layer 2"><g id="Layer_1-2" data-name="Layer 1"><path class="cls-1" d="M112.09,9.69v7.17h-15V57h-8V16.86h-15V9.69Z"/><path class="cls-1" d="M149,57,140.29,42.7c-.68.07-1.42.07-2.16.07H126.9V57h-8V9.69h19.21c12.1,0,19.07,5.89,19.07,16.17,0,7.57-3.52,12.92-9.81,15.35L158,57ZM138.13,35.6c7.3,0,11.5-3.11,11.5-9.54,0-6.22-4.2-9.2-11.5-9.2H126.9V35.6Z"/><path class="cls-1" d="M198.39,46.35H174.52L170,57h-8.32L182.57,9.69h8.18L211.45,57h-8.52Zm-3-7.1-8.93-21-8.93,21Z"/><path class="cls-1" d="M225.58,9.69l25.37,34v-34h7.85V57H251l-25.23-34V57h-8V9.69Z"/><path class="cls-1" d="M286.26,16.86c-4.67,0-7.71,1.76-7.71,4.94,0,10.35,25.56,4.8,25.5,21.85,0,8.45-7.44,13.66-17.86,13.66a29.11,29.11,0,0,1-19.35-7.51l3.45-6.9c4.87,4.47,11,6.9,16,6.9,5.55,0,8.87-2.09,8.87-5.75,0-10.55-25.57-4.66-25.57-21.51,0-8.11,7-13.19,17.25-13.19a30.84,30.84,0,0,1,16.57,4.87l-3.32,7A28.32,28.32,0,0,0,286.26,16.86Z"/><path class="cls-1" d="M334.48,16.59a16.68,16.68,0,1,0,0,33.35,19.56,19.56,0,0,0,13.19-5.62l4.74,5.28a26.86,26.86,0,0,1-18.33,7.78c-13.87,0-24.62-10.49-24.62-24.08S320.35,9.49,334.35,9.49a26.13,26.13,0,0,1,18,7.3l-4.67,5.82A18.46,18.46,0,0,0,334.48,16.59Z"/><path class="cls-1" d="M394.35,9.69v7.17H368.51V29.71h23.13v7.11H368.51v13h26.65V57H360.52V9.69Z"/><path class="cls-1" d="M412.74,9.69l25.37,34v-34H446V57h-7.84l-25.23-34V57h-8V9.69Z"/><path class="cls-1" d="M502.37,33.37C502.37,47,492,57,477.68,57H458.47V9.69h19.41C492.08,9.69,502.37,19.63,502.37,33.37Zm-8.05.06a16.15,16.15,0,0,0-16.58-16.57H466.45v33h11.63C487.28,49.87,494.32,43,494.32,33.43Z"/><g id="Layer_4" data-name="Layer 4"><polygon class="cls-1" points="0 66.14 51.53 66.14 13.54 42.91 0 66.14"/><polygon class="cls-1" points="38.45 0 22.15 28.15 51.53 66.14 76.91 66.14 38.45 0"/></g></g></g></svg>